<svg width="1410" height="454" viewBox="0 0 1410 454" fill="none" xmlns="http://www.w3.org/2000/svg">
<g clip-path="url(#clip0_1264_970)">
<path d="M357.946 101.625C360.921 100.828 363.642 103.549 362.845 106.524L286.092 392.972C285.295 395.947 281.577 396.943 279.399 394.766L69.7043 185.071C67.527 182.893 68.5232 179.175 71.4975 178.378L357.946 101.625Z" fill="#F7B267" fill-opacity="0.85098"/>
<path d="M258.8 300H232.6L187.6 167.2H217.2L246.2 260.4L275 167.2H303.8L258.8 300ZM337.355 300H311.355V201.6H337.355V300ZM337.355 189.8H311.355V165.6H337.355V189.8ZM438.431 300H412.231V240.4C412.231 225.2 407.831 221 395.431 221C381.831 221 375.231 228.6 375.231 243.6V300H349.231V201.6H374.031V216C380.031 205 390.031 199 405.831 199C424.631 199 438.431 210.4 438.431 231.8V300ZM509.417 262.6L509.617 251.8C507.017 254.4 502.417 255.8 492.817 257.6C478.017 260.4 473.217 264.6 473.217 273C473.217 280.4 477.617 284 485.817 284C499.217 284 509.217 274.2 509.417 262.6ZM535.617 300H511.417C510.617 297.6 510.017 294.2 509.817 291.2C503.617 298 493.217 302.6 480.017 302.6C457.617 302.6 447.217 291.6 447.217 275.6C447.217 247.2 466.217 244 492.417 240.4C505.417 238.6 509.017 236 509.017 229.2C509.017 222.8 502.617 219 492.417 219C480.617 219 475.817 224.8 474.617 233.6H450.417C450.817 213.2 462.017 199 493.617 199C524.817 199 535.617 213 535.617 237.8V300ZM636.683 300H607.483L585.883 255.8L573.283 268.8V300H547.083V165.6H573.283V239L605.683 201.6H637.483L604.483 237.8L636.683 300ZM695.355 262.6L695.555 251.8C692.955 254.4 688.355 255.8 678.755 257.6C663.955 260.4 659.155 264.6 659.155 273C659.155 280.4 663.555 284 671.755 284C685.155 284 695.155 274.2 695.355 262.6ZM721.555 300H697.355C696.555 297.6 695.955 294.2 695.755 291.2C689.555 298 679.155 302.6 665.955 302.6C643.555 302.6 633.155 291.6 633.155 275.6C633.155 247.2 652.155 244 678.355 240.4C691.355 238.6 694.955 236 694.955 229.2C694.955 222.8 688.555 219 678.355 219C666.555 219 661.755 224.8 660.555 233.6H636.355C636.755 213.2 647.955 199 679.555 199C710.755 199 721.555 213 721.555 237.8V300ZM779.62 281.4C792.02 281.4 801.62 269.8 801.62 253.2C801.62 231.8 794.22 221.2 779.82 221.2C764.62 221.2 757.42 231.4 757.42 251.6C757.42 269.2 766.62 281.4 779.62 281.4ZM826.22 300H801.22L801.02 288C794.82 298 785.62 302.6 773.62 302.6C748.82 302.6 731.02 283 731.02 249.8C731.02 220 746.02 199 771.42 199C783.62 199 793.22 204 800.62 214.4V165.6H826.22V300ZM862.308 241.2H902.508C902.108 226.6 892.508 219.6 882.308 219.6C871.908 219.6 863.308 227.6 862.308 241.2ZM929.308 257.6H861.508C862.308 272.4 870.708 282 883.508 282C891.908 282 899.308 277.8 901.108 271H927.908C921.908 291.2 905.708 302.6 884.708 302.6C851.908 302.6 835.508 284.6 835.508 249C835.508 218.6 852.908 199 883.108 199C913.308 199 929.308 218.6 929.308 257.6ZM1079.09 300H1053.69V240.4C1053.69 228.6 1047.49 220.2 1038.29 220.2C1028.69 220.2 1021.69 229.2 1021.69 241.2V300H995.694V240.8C995.694 225 991.494 221 980.094 221C969.694 221 964.294 227.4 964.294 240.2V300H938.294V201.6H962.694V216C969.294 203 978.494 199 991.494 199C1004.89 199 1011.29 203.2 1018.89 214.6C1024.29 203.8 1033.09 199 1045.49 199C1065.29 199 1079.09 213.4 1079.09 231.8V300ZM1115.68 300H1089.68V201.6H1115.68V300ZM1115.68 189.8H1089.68V165.6H1115.68V189.8ZM1216.75 300H1190.55V240.4C1190.55 225.2 1186.15 221 1173.75 221C1160.15 221 1153.55 228.6 1153.55 243.6V300H1127.55V201.6H1152.35V216C1158.35 205 1168.35 199 1184.15 199C1202.95 199 1216.75 210.4 1216.75 231.8V300Z" fill="#1E1E1E"/>
</g>
<defs>
<clipPath id="clip0_1264_970">
<rect width="1410" height="454" fill="white"/>
</clipPath>
</defs>
</svg>
