<svg width="1484" height="1484" viewBox="0 0 1484 1484" fill="none" xmlns="http://www.w3.org/2000/svg">
<path d="M1097 376.983C1102.94 375.389 1108.39 380.832 1106.79 386.781L880.423 1231.61C878.829 1237.56 871.393 1239.55 867.038 1235.19L248.582 616.738C244.227 612.383 246.22 604.947 252.168 603.353L1097 376.983Z" fill="#F7B267" fill-opacity="0.85098"/>
<path d="M295.8 815H269.6L224.6 682.2H254.2L283.2 775.4L312 682.2H340.8L295.8 815ZM374.355 815H348.355V716.6H374.355V815ZM374.355 704.8H348.355V680.6H374.355V704.8ZM475.431 815H449.231V755.4C449.231 740.2 444.831 736 432.431 736C418.831 736 412.231 743.6 412.231 758.6V815H386.231V716.6H411.031V731C417.031 720 427.031 714 442.831 714C461.631 714 475.431 725.4 475.431 746.8V815ZM546.417 777.6L546.617 766.8C544.017 769.4 539.417 770.8 529.817 772.6C515.017 775.4 510.217 779.6 510.217 788C510.217 795.4 514.617 799 522.817 799C536.217 799 546.217 789.2 546.417 777.6ZM572.617 815H548.417C547.617 812.6 547.017 809.2 546.817 806.2C540.617 813 530.217 817.6 517.017 817.6C494.617 817.6 484.217 806.6 484.217 790.6C484.217 762.2 503.217 759 529.417 755.4C542.417 753.6 546.017 751 546.017 744.2C546.017 737.8 539.617 734 529.417 734C517.617 734 512.817 739.8 511.617 748.6H487.417C487.817 728.2 499.017 714 530.617 714C561.817 714 572.617 728 572.617 752.8V815ZM673.683 815H644.483L622.883 770.8L610.283 783.8V815H584.083V680.6H610.283V754L642.683 716.6H674.483L641.483 752.8L673.683 815ZM732.355 777.6L732.555 766.8C729.955 769.4 725.355 770.8 715.755 772.6C700.955 775.4 696.155 779.6 696.155 788C696.155 795.4 700.555 799 708.755 799C722.155 799 732.155 789.2 732.355 777.6ZM758.555 815H734.355C733.555 812.6 732.955 809.2 732.755 806.2C726.555 813 716.155 817.6 702.955 817.6C680.555 817.6 670.155 806.6 670.155 790.6C670.155 762.2 689.155 759 715.355 755.4C728.355 753.6 731.955 751 731.955 744.2C731.955 737.8 725.555 734 715.355 734C703.555 734 698.755 739.8 697.555 748.6H673.355C673.755 728.2 684.955 714 716.555 714C747.755 714 758.555 728 758.555 752.8V815ZM816.62 796.4C829.02 796.4 838.62 784.8 838.62 768.2C838.62 746.8 831.22 736.2 816.82 736.2C801.62 736.2 794.42 746.4 794.42 766.6C794.42 784.2 803.62 796.4 816.62 796.4ZM863.22 815H838.22L838.02 803C831.82 813 822.62 817.6 810.62 817.6C785.82 817.6 768.02 798 768.02 764.8C768.02 735 783.02 714 808.42 714C820.62 714 830.22 719 837.62 729.4V680.6H863.22V815ZM899.308 756.2H939.508C939.108 741.6 929.508 734.6 919.308 734.6C908.908 734.6 900.308 742.6 899.308 756.2ZM966.308 772.6H898.508C899.308 787.4 907.708 797 920.508 797C928.908 797 936.308 792.8 938.108 786H964.908C958.908 806.2 942.708 817.6 921.708 817.6C888.908 817.6 872.508 799.6 872.508 764C872.508 733.6 889.908 714 920.108 714C950.308 714 966.308 733.6 966.308 772.6ZM1116.09 815H1090.69V755.4C1090.69 743.6 1084.49 735.2 1075.29 735.2C1065.69 735.2 1058.69 744.2 1058.69 756.2V815H1032.69V755.8C1032.69 740 1028.49 736 1017.09 736C1006.69 736 1001.29 742.4 1001.29 755.2V815H975.294V716.6H999.694V731C1006.29 718 1015.49 714 1028.49 714C1041.89 714 1048.29 718.2 1055.89 729.6C1061.29 718.8 1070.09 714 1082.49 714C1102.29 714 1116.09 728.4 1116.09 746.8V815ZM1152.68 815H1126.68V716.6H1152.68V815ZM1152.68 704.8H1126.68V680.6H1152.68V704.8ZM1253.75 815H1227.55V755.4C1227.55 740.2 1223.15 736 1210.75 736C1197.15 736 1190.55 743.6 1190.55 758.6V815H1164.55V716.6H1189.35V731C1195.35 720 1205.35 714 1221.15 714C1239.95 714 1253.75 725.4 1253.75 746.8V815Z" fill="#1E1E1E"/>
</svg>
